<?xml version="1.0" encoding="utf-8"?>
<!-- Generator: Adobe Illustrator 22.0.1, SVG Export Plug-In . SVG Version: 6.00 Build 0)  -->
<svg version="1.1" id="Capa_1" xmlns="http://www.w3.org/2000/svg" xmlns:xlink="http://www.w3.org/1999/xlink" x="0px" y="0px"
	 viewBox="0 0 3401.6 3401.6" style="enable-background:new 0 0 3401.6 3401.6;" xml:space="preserve">
<style type="text/css">
	.st0{fill:#EAEFF2;}
	.st1{fill:url(#SVGID_1_);}
</style>
<path class="st0" d="M2899,3401.6H499.7C224.9,3401.6,0,3176.7,0,2901.9V499.7C0,224.9,224.9,0,499.7,0H2899
	c274.8,0,499.7,224.9,499.7,499.7v2402.2C3398.7,3176.7,3173.9,3401.6,2899,3401.6z"/>
<linearGradient id="SVGID_1_" gradientUnits="userSpaceOnUse" x1="723.5367" y1="3901.749" x2="2686.2146" y2="5864.4282" gradientTransform="matrix(1 0 0 1 0 -3177.9998)">
	<stop  offset="0.1317" style="stop-color:#4EA9CE"/>
	<stop  offset="0.293" style="stop-color:#54A6D4"/>
	<stop  offset="0.7" style="stop-color:#687AB4"/>
</linearGradient>
<path class="st1" d="M1994.9,1017L1994.9,1017c-324.1,0-973.3-262.7-973.3-586.7h-4.5c0,540.1,437.8,977.9,977.9,977.9l0,0
	c324.1,0,586.7,262.7,586.7,586.7l0,0c0,324.1-262.7,586.7-586.7,586.7s-586.7-262.7-586.7-586.7l0,0
	c0-540.1-437.8-977.9-977.9-977.9v4.5c324.1,0,586.7,649.3,586.7,973.3l0,0c0,540.1,437.8,977.9,977.9,977.9
	s977.9-437.8,977.9-977.9C2972.7,1455.9,2535,1017,1994.9,1017z"/>
</svg>
