<?xml version="1.0" encoding="utf-8"?>
<!-- Generator: Adobe Illustrator 22.0.1, SVG Export Plug-In . SVG Version: 6.00 Build 0)  -->
<svg version="1.1" id="Ebene_1" xmlns="http://www.w3.org/2000/svg" xmlns:xlink="http://www.w3.org/1999/xlink" x="0px" y="0px"
	 viewBox="0 0 235.3 223.1" style="enable-background:new 0 0 235.3 223.1;" xml:space="preserve">
<style type="text/css">
	.st0{fill:url(#SVGID_1_);}
	.st1{fill:url(#SVGID_2_);}
</style>
<g>
	
		<linearGradient id="SVGID_1_" gradientUnits="userSpaceOnUse" x1="-1223.1082" y1="168.45" x2="-1144.1067" y2="305.2845" gradientTransform="matrix(-1 0 0 1 -1025.3986 -158.0667)">
		<stop  offset="0" style="stop-color:#69B3B9"/>
		<stop  offset="1" style="stop-color:#006E8E"/>
	</linearGradient>
	<path class="st0" d="M146.8,15.3c24.7-24.7,67.3-8.1,68.2,26.7c0,0.4,0,0.8,0,1.2v48.1v8.2c0,14.7-17.8,22.1-28.2,11.7l0,0
		c-12.8-12.7-19.9-30-19.9-48.1v0L130,100.1l0,0l-34,34c-18.8-18.8-18.8-49.2,0-68L146.8,15.3z"/>
	
		<linearGradient id="SVGID_2_" gradientUnits="userSpaceOnUse" x1="-1142.6875" y1="235.1919" x2="-1063.687" y2="372.0249" gradientTransform="matrix(-1 0 0 1 -1025.3986 -158.0667)">
		<stop  offset="0" style="stop-color:#69B3B9"/>
		<stop  offset="1" style="stop-color:#006E8E"/>
	</linearGradient>
	<path class="st1" d="M89.2,209c-24.7,24.7-67.3,8.1-68.2-26.7c0-0.4,0-0.8,0-1.2V133v-8.2c0-14.7,17.8-22.1,28.2-11.7l0,0
		c12.8,12.8,19.9,30,19.9,48.1v0l36.9-36.9h0l34-34c18.8,18.8,18.8,49.2,0,68L89.2,209z"/>
</g>
</svg>
