<?xml version="1.0" encoding="utf-8"?>
<!-- Generator: Adobe Illustrator 22.0.1, SVG Export Plug-In . SVG Version: 6.00 Build 0)  -->
<svg version="1.1" id="Ebene_1" xmlns="http://www.w3.org/2000/svg" xmlns:xlink="http://www.w3.org/1999/xlink" x="0px" y="0px"
	 viewBox="0 0 549.3 223.1" style="enable-background:new 0 0 549.3 223.1;" xml:space="preserve">
<style type="text/css">
	.st0{fill:#FFFFFF;}
</style>
<g>
	<path class="st0" d="M127.3,130c0,1-0.3,1.9-1,2.5c-0.7,0.7-1.4,1-2.3,1c-0.7,0-1.4-0.2-1.9-0.7c-0.6-0.4-1-1-1.3-1.8l-3.1-7.2H100
		l-3.1,7.2c-0.3,0.8-0.7,1.3-1.3,1.7c-0.6,0.4-1.2,0.6-1.9,0.6c-1,0-1.8-0.3-2.3-0.8s-0.8-1.3-0.8-2.3c0-0.4,0.1-0.7,0.2-1.1
		l14.8-35.4c0.3-0.8,0.8-1.4,1.4-1.8c0.6-0.4,1.3-0.6,2.1-0.5c0.7,0,1.4,0.2,2,0.6c0.6,0.4,1.1,1,1.3,1.7l14.6,34.7
		C127.2,129.1,127.3,129.6,127.3,130z M102.9,117.1h11.9l-6-13.9L102.9,117.1z"/>
	<path class="st0" d="M167.6,102c0.7,0.7,1,1.5,1,2.6v26.4c0,4.8-1.5,8.4-4.5,10.7c-3,2.3-6.8,3.5-11.3,3.5c-1.2,0-2.8-0.2-4.9-0.6
		c-2.1-0.4-3.5-0.8-4.4-1.2c-1.9-0.8-2.9-2-2.9-3.4c0-0.3,0.1-0.6,0.2-0.9c0.2-0.9,0.6-1.5,1.2-2c0.6-0.5,1.2-0.7,1.9-0.7
		c0.4,0,0.8,0.1,1.1,0.2c0.2,0,1.1,0.4,2.9,1.1c1.8,0.7,3.4,1,4.9,1c2.9,0,5.1-0.6,6.5-1.7c1.4-1.2,2.2-2.8,2.2-4.9V129
		c-0.9,1.2-2.2,2.3-3.9,3.3c-1.8,1-3.6,1.5-5.7,1.5c-2.8,0-5.3-0.7-7.6-2.1c-2.3-1.4-4.1-3.3-5.4-5.8s-2-5.3-2-8.5
		c0-3.2,0.6-6,1.9-8.5c1.3-2.5,3-4.5,5.3-5.9c2.2-1.4,4.7-2.1,7.4-2.1c2,0,3.9,0.4,5.6,1.2c1.7,0.8,3.1,1.8,4.2,3v-0.7
		c0-1,0.3-1.9,1-2.6c0.7-0.7,1.5-1,2.5-1C166.1,100.9,167,101.3,167.6,102z M159.3,124.5c1.7-1.9,2.5-4.2,2.5-7.1s-0.8-5.2-2.5-7.1
		c-1.7-1.9-3.8-2.8-6.5-2.8c-2.6,0-4.8,0.9-6.5,2.8c-1.7,1.9-2.5,4.3-2.5,7.1s0.8,5.2,2.5,7.1c1.7,1.9,3.8,2.8,6.5,2.8
		C155.5,127.3,157.6,126.4,159.3,124.5z"/>
	<path class="st0" d="M202.9,102c0.8,0.7,1.2,1.5,1.2,2.4c0,1.2-0.3,2.1-0.9,2.8c-0.6,0.6-1.4,0.9-2.3,0.9c-0.6,0-1.3-0.1-2-0.4
		c-0.1,0-0.4-0.1-0.8-0.2c-0.4-0.1-0.9-0.2-1.3-0.2c-1,0-2,0.3-3,0.9c-0.9,0.6-1.7,1.6-2.3,2.9c-0.6,1.3-0.9,2.8-0.9,4.6v14
		c0,1-0.3,1.9-1,2.6c-0.7,0.7-1.5,1-2.5,1c-1,0-1.9-0.3-2.5-1c-0.7-0.7-1-1.5-1-2.6v-24.5c0-1,0.3-1.9,1-2.6c0.7-0.7,1.5-1,2.5-1
		c1,0,1.9,0.3,2.5,1c0.7,0.7,1,1.6,1,2.6v0.8c0.9-1.6,2.2-2.9,3.9-3.7c1.7-0.8,3.5-1.3,5.5-1.3C201.1,100.9,202.1,101.3,202.9,102z"
		/>
	<path class="st0" d="M243.3,125.9c-1.4,2.5-3.4,4.5-5.8,5.8c-2.5,1.4-5.2,2.1-8.1,2.1c-3,0-5.7-0.7-8.2-2.1
		c-2.5-1.4-4.4-3.3-5.8-5.8c-1.4-2.5-2.1-5.3-2.1-8.5c0-3.2,0.7-6,2.1-8.5c1.4-2.5,3.4-4.5,5.8-5.9c2.4-1.4,5.2-2.1,8.2-2.1
		c3,0,5.7,0.7,8.1,2.1c2.5,1.4,4.4,3.4,5.8,5.9c1.4,2.5,2.1,5.3,2.1,8.5C245.4,120.6,244.7,123.4,243.3,125.9z M237.1,112.2
		c-0.8-1.5-1.9-2.7-3.3-3.5c-1.4-0.8-2.9-1.2-4.5-1.2s-3.2,0.4-4.5,1.2c-1.4,0.8-2.4,2-3.3,3.5c-0.8,1.5-1.2,3.2-1.2,5.2
		c0,1.9,0.4,3.7,1.2,5.2c0.8,1.5,1.9,2.7,3.3,3.5c1.4,0.8,2.9,1.2,4.5,1.2s3.2-0.4,4.5-1.2c1.4-0.8,2.4-2,3.3-3.5
		c0.8-1.5,1.2-3.2,1.2-5.2C238.3,115.5,237.9,113.8,237.1,112.2z"/>
	<path class="st0" d="M297.6,92.7c0.7,0.7,1.1,1.6,1.1,2.6v34.3c0,1-0.3,1.9-1,2.6c-0.7,0.7-1.6,1-2.7,1c-1.1,0-2-0.3-2.7-1
		c-0.7-0.7-1-1.5-1-2.6v-23.9l-9.8,14.9c-0.4,0.5-0.8,0.9-1.4,1.2c-0.5,0.3-1,0.4-1.6,0.4c-0.5,0-1-0.1-1.5-0.4
		c-0.5-0.3-1-0.7-1.4-1.2l-9.8-15.5v24.4c0,1.1-0.3,1.9-0.9,2.6c-0.6,0.7-1.5,1-2.5,1c-1,0-1.8-0.3-2.4-1c-0.6-0.7-0.9-1.5-0.9-2.6
		V95.3c0-1,0.4-1.8,1.1-2.5c0.7-0.7,1.6-1.1,2.6-1.1c0.6,0,1.2,0.1,1.8,0.4c0.6,0.3,1,0.7,1.4,1.2l12.9,19.9l13.3-19.9
		c0.3-0.5,0.7-0.9,1.3-1.2c0.5-0.3,1.1-0.4,1.6-0.4C296,91.7,296.9,92.1,297.6,92.7z"/>
	<path class="st0" d="M342.3,102c0.7,0.7,1,1.5,1,2.6v25.1c0,1-0.3,1.9-1,2.6c-0.7,0.7-1.5,1-2.5,1c-1,0-1.9-0.3-2.5-1
		c-0.7-0.7-1-1.5-1-2.5c-1,1.1-2.3,2.1-4,2.9c-1.7,0.8-3.4,1.2-5.3,1.2c-2.7,0-5.2-0.7-7.4-2.1c-2.2-1.4-4-3.3-5.2-5.8
		c-1.3-2.5-1.9-5.3-1.9-8.5c0-3.2,0.6-6,1.9-8.5c1.3-2.5,3-4.5,5.2-5.9c2.2-1.4,4.6-2.1,7.3-2.1c1.9,0,3.7,0.3,5.3,1
		c1.7,0.7,3.1,1.6,4.2,2.6v-0.1c0-1,0.3-1.9,1-2.6c0.7-0.7,1.5-1,2.5-1C340.8,100.9,341.6,101.3,342.3,102z M334.1,124.5
		c1.6-1.9,2.4-4.2,2.4-7.1s-0.8-5.2-2.4-7.1c-1.6-1.9-3.7-2.8-6.3-2.8c-2.5,0-4.6,0.9-6.2,2.8c-1.6,1.9-2.4,4.3-2.4,7.1
		s0.8,5.2,2.4,7.1c1.6,1.9,3.7,2.8,6.3,2.8C330.4,127.3,332.5,126.4,334.1,124.5z"/>
	<path class="st0" d="M377.6,102c0.8,0.7,1.2,1.5,1.2,2.4c0,1.2-0.3,2.1-0.9,2.8c-0.6,0.6-1.4,0.9-2.3,0.9c-0.6,0-1.3-0.1-2-0.4
		c-0.1,0-0.4-0.1-0.8-0.2c-0.4-0.1-0.9-0.2-1.3-0.2c-1,0-2,0.3-3,0.9c-0.9,0.6-1.7,1.6-2.3,2.9c-0.6,1.3-0.9,2.8-0.9,4.6v14
		c0,1-0.3,1.9-1,2.6c-0.7,0.7-1.5,1-2.5,1c-1,0-1.9-0.3-2.5-1c-0.7-0.7-1-1.5-1-2.6v-24.5c0-1,0.3-1.9,1-2.6c0.7-0.7,1.5-1,2.5-1
		c1,0,1.9,0.3,2.5,1c0.7,0.7,1,1.6,1,2.6v0.8c0.9-1.6,2.2-2.9,3.9-3.7c1.7-0.8,3.5-1.3,5.5-1.3C375.8,100.9,376.8,101.3,377.6,102z"
		/>
	<path class="st0" d="M418.5,129.7c0,1-0.4,1.8-1.2,2.5c-0.8,0.7-1.6,1-2.5,1c-1,0-1.9-0.4-2.6-1.2l-10.7-11.3l-2.9,2.7v6.2
		c0,1-0.3,1.9-1,2.6c-0.7,0.7-1.5,1-2.5,1c-1,0-1.9-0.3-2.5-1c-0.7-0.7-1-1.5-1-2.6V93c0-1,0.3-1.9,1-2.6c0.7-0.7,1.5-1,2.5-1
		c1,0,1.9,0.3,2.5,1c0.7,0.7,1,1.6,1,2.6v21.9l12.7-12.3c0.8-0.7,1.6-1.1,2.6-1.1c0.9,0,1.6,0.4,2.3,1.1c0.7,0.7,1,1.5,1,2.2
		c0,0.9-0.5,1.8-1.4,2.7l-8.9,8.2l10.4,11.3C418.1,127.8,418.5,128.7,418.5,129.7z"/>
	<path class="st0" d="M457.8,119c-0.7,0.6-1.5,0.9-2.5,0.9h-19.6c0.5,2.3,1.6,4.2,3.3,5.5c1.7,1.3,3.6,2,5.7,2
		c1.6,0,2.9-0.1,3.8-0.4c0.9-0.3,1.6-0.6,2.2-0.9c0.5-0.3,0.9-0.6,1.1-0.7c0.7-0.4,1.4-0.5,2-0.5c0.8,0,1.5,0.3,2.1,0.9
		c0.6,0.6,0.9,1.3,0.9,2.1c0,1.1-0.6,2-1.7,2.9c-1.1,0.9-2.6,1.7-4.4,2.3c-1.9,0.6-3.7,0.9-5.6,0.9c-3.3,0-6.2-0.7-8.7-2.1
		c-2.5-1.4-4.4-3.3-5.7-5.7c-1.3-2.4-2-5.2-2-8.2c0-3.4,0.7-6.4,2.1-8.9c1.4-2.6,3.3-4.5,5.6-5.9c2.3-1.4,4.8-2,7.5-2
		c2.6,0,5.1,0.7,7.4,2.1c2.3,1.4,4.2,3.3,5.5,5.7c1.4,2.4,2.1,5,2.1,7.8C458.9,117.6,458.5,118.4,457.8,119z M435.8,113.9h15.5v-0.4
		c-0.2-1.7-1-3.1-2.4-4.3c-1.5-1.2-3.1-1.8-5-1.8C439.3,107.5,436.6,109.6,435.8,113.9z"/>
	<path class="st0" d="M499.3,119c-0.7,0.6-1.5,0.9-2.5,0.9h-19.6c0.5,2.3,1.6,4.2,3.3,5.5c1.7,1.3,3.6,2,5.7,2
		c1.6,0,2.9-0.1,3.8-0.4c0.9-0.3,1.6-0.6,2.2-0.9c0.5-0.3,0.9-0.6,1.1-0.7c0.7-0.4,1.4-0.5,2-0.5c0.8,0,1.5,0.3,2.1,0.9
		c0.6,0.6,0.9,1.3,0.9,2.1c0,1.1-0.6,2-1.7,2.9c-1.1,0.9-2.6,1.7-4.4,2.3c-1.9,0.6-3.7,0.9-5.6,0.9c-3.3,0-6.2-0.7-8.7-2.1
		c-2.5-1.4-4.4-3.3-5.7-5.7c-1.3-2.4-2-5.2-2-8.2c0-3.4,0.7-6.4,2.1-8.9c1.4-2.6,3.3-4.5,5.6-5.9c2.3-1.4,4.8-2,7.5-2
		c2.6,0,5.1,0.7,7.4,2.1c2.3,1.4,4.2,3.3,5.5,5.7c1.4,2.4,2.1,5,2.1,7.8C500.4,117.6,500,118.4,499.3,119z M477.3,113.9h15.5v-0.4
		c-0.2-1.7-1-3.1-2.4-4.3c-1.5-1.2-3.1-1.8-5-1.8C480.8,107.5,478.1,109.6,477.3,113.9z"/>
	<path class="st0" d="M530.2,127.3c0.5,0.5,0.7,1.2,0.7,2.1c0,1.1-0.6,2-1.7,2.7c-1.2,0.7-2.5,1.1-3.9,1.1c-2.4,0-4.5-0.5-6.2-1.6
		c-1.7-1-2.5-3.3-2.5-6.7v-16.4h-2.7c-0.9,0-1.7-0.3-2.4-0.9c-0.6-0.6-0.9-1.4-0.9-2.4c0-0.9,0.3-1.7,0.9-2.3
		c0.6-0.6,1.4-0.9,2.4-0.9h2.7v-3.8c0-1,0.3-1.9,1-2.6c0.7-0.7,1.5-1,2.6-1c1,0,1.8,0.3,2.5,1c0.7,0.7,1,1.6,1,2.6v3.8h4.2
		c0.9,0,1.7,0.3,2.4,0.9c0.6,0.6,0.9,1.4,0.9,2.4c0,0.9-0.3,1.7-0.9,2.3c-0.6,0.6-1.4,0.9-2.4,0.9h-4.2v16.1c0,0.8,0.2,1.4,0.7,1.8
		c0.4,0.4,1,0.6,1.8,0.6c0.3,0,0.8-0.1,1.3-0.2c0.5-0.2,0.9-0.3,1.4-0.3C529.3,126.5,529.8,126.8,530.2,127.3z"/>
</g>
</svg>
