<?xml version="1.0" encoding="utf-8"?>
<!-- Generator: Adobe Illustrator 22.0.1, SVG Export Plug-In . SVG Version: 6.00 Build 0)  -->
<svg version="1.1" id="Ebene_1" xmlns="http://www.w3.org/2000/svg" xmlns:xlink="http://www.w3.org/1999/xlink" x="0px" y="0px"
	 viewBox="0 0 549.3 223.1" style="enable-background:new 0 0 549.3 223.1;" xml:space="preserve">
<style type="text/css">
	.st0{fill:#FFFFFF;}
</style>
<g>
	<path class="st0" d="M-93.7,51.3L-93.7,51.3c-28.5,0-85.6-23.1-85.6-51.6h-0.4c0,47.5,38.5,86,86,86l0,0
		c28.5,0,51.6,23.1,51.6,51.6l0,0c0,28.5-23.1,51.6-51.6,51.6s-51.6-23.1-51.6-51.6l0,0c0-47.5-38.5-86-86-86v0.4
		c28.5,0,51.6,57.1,51.6,85.6l0,0c0,47.5,38.5,86,86,86s86-38.5,86-86C-7.7,89.9-46.2,51.3-93.7,51.3z"/>
	<g>
		<path class="st0" d="M104,116.4c0,1.2-0.4,2.4-1.3,3.5c-0.9,1.2-2.1,1.8-3.5,1.8c-1,0-1.9-0.3-2.9-0.8c-2.8-1.3-5.8-2-9.1-2
			c-4,0-7.5,0.8-10.5,2.5s-5.3,4.1-6.9,7.1c-1.6,3.1-2.4,6.6-2.4,10.5c0,6.8,1.8,11.9,5.5,15.4c3.6,3.5,8.4,5.2,14.3,5.2
			c3.5,0,6.5-0.7,9.1-2c1-0.5,1.9-0.7,2.8-0.7c1.5,0,2.8,0.6,3.8,1.9c0.9,1.1,1.3,2.3,1.3,3.5c0,0.9-0.2,1.7-0.7,2.5
			c-0.5,0.7-1.1,1.3-2,1.7c-4.5,2.2-9.2,3.4-14.3,3.4c-5.6,0-10.8-1.2-15.5-3.6c-4.7-2.4-8.5-5.9-11.3-10.5s-4.2-10.3-4.2-16.8
			c0-5.8,1.3-11.1,4-15.7s6.3-8.3,11-10.9s10-3.9,15.9-3.9c5.1,0,9.8,1.1,14.2,3.4C103.1,112.9,104,114.4,104,116.4z"/>
		<path class="st0" d="M181.9,154.8c-2.5,4.7-6,8.5-10.4,11.2c-4.4,2.8-9.4,4.1-15,4.1s-10.6-1.4-15-4.1c-4.4-2.8-7.9-6.5-10.4-11.2
			s-3.7-9.9-3.7-15.6c0-5.7,1.2-10.9,3.7-15.6s6-8.5,10.4-11.2c4.4-2.8,9.4-4.1,15-4.1s10.6,1.4,15,4.1c4.4,2.8,7.9,6.5,10.4,11.2
			s3.8,9.9,3.8,15.6C185.7,144.9,184.4,150.1,181.9,154.8z M172.2,128.7c-1.5-3.1-3.7-5.6-6.4-7.4c-2.8-1.8-5.8-2.8-9.3-2.8
			s-6.6,0.9-9.3,2.7c-2.7,1.8-4.8,4.3-6.4,7.4c-1.5,3.2-2.3,6.6-2.3,10.5s0.8,7.3,2.3,10.5s3.6,5.6,6.4,7.4c2.7,1.8,5.8,2.7,9.3,2.7
			c3.4,0,6.5-0.9,9.3-2.8c2.8-1.8,4.9-4.3,6.4-7.4c1.5-3.1,2.3-6.6,2.3-10.4S173.7,131.9,172.2,128.7z"/>
		<path class="st0" d="M261.8,110.5c0.9,0.9,1.3,2.1,1.3,3.4V164c0,1.5-0.5,2.7-1.5,3.7s-2.2,1.5-3.7,1.5c-0.8,0-1.6-0.1-2.4-0.4
			c-0.8-0.3-1.3-0.6-1.7-1.1l-31.5-40.1v36.7c0,1.4-0.4,2.5-1.3,3.4s-2,1.4-3.5,1.4c-1.4,0-2.5-0.5-3.4-1.4s-1.3-2.1-1.3-3.4v-50.1
			c0-1.5,0.5-2.7,1.5-3.7s2.2-1.5,3.7-1.5c0.9,0,1.7,0.2,2.5,0.5s1.4,0.8,1.8,1.4l31.3,39.9v-37c0-1.4,0.4-2.5,1.3-3.4
			s2-1.4,3.4-1.4S260.9,109.6,261.8,110.5z"/>
		<path class="st0" d="M336.5,110.5c1,0.9,1.5,2.1,1.5,3.6s-0.5,2.7-1.5,3.6s-2.2,1.3-3.8,1.3h-13.5v45c0,1.5-0.5,2.7-1.6,3.7
			s-2.4,1.5-4,1.5s-2.9-0.5-4-1.5c-1-1-1.5-2.2-1.5-3.7v-45h-13.5c-1.5,0-2.8-0.5-3.8-1.4s-1.5-2.1-1.5-3.6c0-1.4,0.5-2.6,1.5-3.5
			s2.2-1.4,3.7-1.4h38.2C334.2,109.1,335.5,109.6,336.5,110.5z"/>
		<path class="st0" d="M407.5,164.6c0,1.5-0.5,2.7-1.5,3.7c-1,0.9-2.1,1.4-3.4,1.4c-1,0-2-0.3-2.8-0.9c-0.8-0.6-1.5-1.5-1.9-2.6
			l-4.5-10.4h-25.6l-4.5,10.5c-0.4,1.1-1,1.9-1.8,2.5s-1.7,0.9-2.7,0.9c-1.5,0-2.6-0.4-3.4-1.2c-0.8-0.8-1.2-1.9-1.2-3.3
			c0-0.5,0.1-1.1,0.3-1.6l21.4-51.4c0.5-1.1,1.1-2,2.1-2.7c0.9-0.6,1.9-0.9,3.1-0.8c1,0,2,0.3,2.9,0.9s1.5,1.4,1.9,2.5l21.1,50.4
			C407.3,163.3,407.5,164,407.5,164.6z M372,145.9h17.2l-8.7-20.1L372,145.9z"/>
		<path class="st0" d="M440.3,168.6c-3.2-1-6.2-2.8-9-5.2c-1.5-1.4-2.3-2.9-2.3-4.6c0-1.3,0.5-2.5,1.5-3.5s2.1-1.5,3.5-1.5
			c1.1,0,2.1,0.3,2.9,1c2.3,1.9,4.5,3.3,6.7,4.1c2.2,0.9,4.8,1.3,7.7,1.3c3.2,0,6-0.7,8.3-2.1c2.3-1.4,3.5-3.2,3.5-5.3
			c0-2.6-1.1-4.6-3.4-6.1c-2.3-1.5-5.9-2.6-10.9-3.3c-12.6-1.8-18.8-7.7-18.8-17.5c0-3.6,0.9-6.7,2.8-9.4c1.9-2.7,4.5-4.7,7.7-6.1
			c3.3-1.4,6.9-2.1,10.9-2.1c3.6,0,7,0.5,10.2,1.6s5.8,2.5,8,4.3c1.7,1.3,2.5,2.8,2.5,4.6c0,1.3-0.5,2.5-1.5,3.5s-2.1,1.5-3.4,1.5
			c-0.9,0-1.6-0.3-2.3-0.8c-1.5-1.2-3.6-2.3-6.2-3.3c-2.7-1-5.1-1.5-7.2-1.5c-3.6,0-6.4,0.7-8.4,2s-3,3.1-3,5.3c0,2.5,1,4.3,3.1,5.6
			c2,1.3,5.2,2.3,9.6,3.1c4.9,0.9,8.9,2,11.8,3.3c3,1.3,5.2,3.2,6.7,5.5s2.2,5.4,2.2,9.2c0,3.6-1,6.8-3.1,9.5
			c-2,2.7-4.7,4.8-8.1,6.3c-3.4,1.5-7,2.2-10.9,2.2C447.2,170.1,443.5,169.6,440.3,168.6z"/>
		<path class="st0" d="M547.4,162c0.2,0.7,0.3,1.3,0.3,1.8c0,1.5-0.6,2.8-1.8,3.9c-1.2,1-2.5,1.5-4.1,1.5c-0.7,0-1.5-0.2-2.1-0.5
			c-0.7-0.3-1.3-0.8-1.7-1.5l-18.7-24.6l-8.2,7.8V164c0,1.5-0.5,2.8-1.5,3.8s-2.3,1.5-3.9,1.5c-1.5,0-2.8-0.5-3.8-1.5
			s-1.5-2.2-1.5-3.7v-49.7c0-1.5,0.5-2.7,1.5-3.7s2.3-1.5,4-1.5c1.5,0,2.8,0.5,3.8,1.5s1.5,2.2,1.5,3.8v23.4l27.5-27.1
			c1.3-1.3,2.7-2,4.2-2c1.3,0,2.4,0.5,3.4,1.6c0.9,1.1,1.4,2.2,1.4,3.4c0,1.2-0.5,2.3-1.5,3.4L527.4,135l19.2,25.4
			C546.9,160.8,547.2,161.3,547.4,162z"/>
	</g>
</g>
</svg>
