<?xml version="1.0" encoding="utf-8"?>
<!-- Generator: Adobe Illustrator 22.0.1, SVG Export Plug-In . SVG Version: 6.00 Build 0)  -->
<svg version="1.1" id="Ebene_1" xmlns="http://www.w3.org/2000/svg" xmlns:xlink="http://www.w3.org/1999/xlink" x="0px" y="0px"
	 viewBox="0 0 782.3 223.1" style="enable-background:new 0 0 782.3 223.1;" xml:space="preserve">
<style type="text/css">
	.st0{fill:url(#SVGID_1_);}
	.st1{fill:#272B3A;}
</style>
<g>
	<linearGradient id="SVGID_1_" gradientUnits="userSpaceOnUse" x1="27.4642" y1="25.5368" x2="200.1244" y2="198.1971">
		<stop  offset="0.1317" style="stop-color:#48C6EF"/>
		<stop  offset="0.293" style="stop-color:#54B3E8"/>
		<stop  offset="0.7" style="stop-color:#6F86D6"/>
	</linearGradient>
	<path class="st0" d="M139.3,51.3L139.3,51.3c-28.5,0-85.6-23.1-85.6-51.6h-0.4c0,47.5,38.5,86,86,86v0c28.5,0,51.6,23.1,51.6,51.6
		l0,0c0,28.5-23.1,51.6-51.6,51.6c-28.5,0-51.6-23.1-51.6-51.6h0c0-47.5-38.5-86-86-86v0.4c28.5,0,51.6,57.1,51.6,85.6h0
		c0,47.5,38.5,86,86,86c47.5,0,86-38.5,86-86C225.3,89.9,186.8,51.3,139.3,51.3z"/>
	<g>
		<path class="st1" d="M337,116.4c0,1.2-0.4,2.4-1.3,3.5c-0.9,1.2-2.1,1.8-3.5,1.8c-1,0-1.9-0.3-2.9-0.8c-2.8-1.3-5.8-2-9.1-2
			c-4,0-7.5,0.8-10.5,2.5c-3,1.7-5.3,4.1-6.9,7.1c-1.6,3.1-2.4,6.6-2.4,10.5c0,6.8,1.8,11.9,5.5,15.4c3.6,3.5,8.4,5.2,14.3,5.2
			c3.5,0,6.5-0.7,9.1-2c1-0.5,1.9-0.7,2.8-0.7c1.5,0,2.8,0.6,3.8,1.9c0.9,1.1,1.3,2.3,1.3,3.5c0,0.9-0.2,1.7-0.7,2.5
			c-0.5,0.7-1.1,1.3-2,1.7c-4.5,2.2-9.2,3.4-14.3,3.4c-5.6,0-10.8-1.2-15.5-3.6c-4.7-2.4-8.5-5.9-11.3-10.5
			c-2.8-4.6-4.2-10.3-4.2-16.8c0-5.8,1.3-11.1,4-15.7c2.7-4.6,6.3-8.3,11-10.9c4.7-2.6,10-3.9,15.9-3.9c5.1,0,9.8,1.1,14.2,3.4
			C336.1,112.9,337,114.4,337,116.4z"/>
		<path class="st1" d="M414.9,154.8c-2.5,4.7-6,8.5-10.4,11.2c-4.4,2.8-9.4,4.1-15,4.1c-5.6,0-10.6-1.4-15-4.1
			c-4.4-2.8-7.9-6.5-10.4-11.2c-2.5-4.7-3.7-9.9-3.7-15.6c0-5.7,1.2-10.9,3.7-15.6c2.5-4.7,6-8.5,10.4-11.2c4.4-2.8,9.4-4.1,15-4.1
			c5.6,0,10.6,1.4,15,4.1c4.4,2.8,7.9,6.5,10.4,11.2c2.5,4.7,3.8,9.9,3.8,15.6C418.7,144.9,417.4,150.1,414.9,154.8z M405.2,128.7
			c-1.5-3.1-3.7-5.6-6.4-7.4c-2.8-1.8-5.8-2.8-9.3-2.8c-3.5,0-6.6,0.9-9.3,2.7c-2.7,1.8-4.8,4.3-6.4,7.4c-1.5,3.2-2.3,6.6-2.3,10.5
			s0.8,7.3,2.3,10.5c1.5,3.2,3.6,5.6,6.4,7.4c2.7,1.8,5.8,2.7,9.3,2.7c3.4,0,6.5-0.9,9.3-2.8c2.8-1.8,4.9-4.3,6.4-7.4
			c1.5-3.1,2.3-6.6,2.3-10.4S406.7,131.9,405.2,128.7z"/>
		<path class="st1" d="M494.8,110.5c0.9,0.9,1.3,2.1,1.3,3.4V164c0,1.5-0.5,2.7-1.5,3.7c-1,1-2.2,1.5-3.7,1.5
			c-0.8,0-1.6-0.1-2.4-0.4c-0.8-0.3-1.3-0.6-1.7-1.1l-31.5-40.1v36.7c0,1.4-0.4,2.5-1.3,3.4c-0.9,0.9-2,1.4-3.5,1.4
			c-1.4,0-2.5-0.5-3.4-1.4c-0.9-0.9-1.3-2.1-1.3-3.4v-50.1c0-1.5,0.5-2.7,1.5-3.7c1-1,2.2-1.5,3.7-1.5c0.9,0,1.7,0.2,2.5,0.5
			c0.8,0.3,1.4,0.8,1.8,1.4l31.3,39.9v-37c0-1.4,0.4-2.5,1.3-3.4c0.9-0.9,2-1.4,3.4-1.4S493.9,109.6,494.8,110.5z"/>
		<path class="st1" d="M569.5,110.5c1,0.9,1.5,2.1,1.5,3.6c0,1.5-0.5,2.7-1.5,3.6c-1,0.9-2.2,1.3-3.8,1.3h-13.5v45
			c0,1.5-0.5,2.7-1.6,3.7c-1.1,1-2.4,1.5-4,1.5s-2.9-0.5-4-1.5c-1-1-1.5-2.2-1.5-3.7v-45h-13.5c-1.5,0-2.8-0.5-3.8-1.4
			c-1-0.9-1.5-2.1-1.5-3.6c0-1.4,0.5-2.6,1.5-3.5c1-0.9,2.2-1.4,3.7-1.4h38.2C567.2,109.1,568.5,109.6,569.5,110.5z"/>
		<path class="st1" d="M640.5,164.6c0,1.5-0.5,2.7-1.5,3.7c-1,0.9-2.1,1.4-3.4,1.4c-1,0-2-0.3-2.8-0.9c-0.8-0.6-1.5-1.5-1.9-2.6
			l-4.5-10.4h-25.6l-4.5,10.5c-0.4,1.1-1,1.9-1.8,2.5c-0.8,0.6-1.7,0.9-2.7,0.9c-1.5,0-2.6-0.4-3.4-1.2c-0.8-0.8-1.2-1.9-1.2-3.3
			c0-0.5,0.1-1.1,0.3-1.6l21.4-51.4c0.5-1.1,1.1-2,2.1-2.7c0.9-0.6,1.9-0.9,3.1-0.8c1,0,2,0.3,2.9,0.9c0.9,0.6,1.5,1.4,1.9,2.5
			l21.1,50.4C640.3,163.3,640.5,164,640.5,164.6z M605,145.9h17.2l-8.7-20.1L605,145.9z"/>
		<path class="st1" d="M673.3,168.6c-3.2-1-6.2-2.8-9-5.2c-1.5-1.4-2.3-2.9-2.3-4.6c0-1.3,0.5-2.5,1.5-3.5c1-1,2.1-1.5,3.5-1.5
			c1.1,0,2.1,0.3,2.9,1c2.3,1.9,4.5,3.3,6.7,4.1c2.2,0.9,4.8,1.3,7.7,1.3c3.2,0,6-0.7,8.3-2.1c2.3-1.4,3.5-3.2,3.5-5.3
			c0-2.6-1.1-4.6-3.4-6.1c-2.3-1.5-5.9-2.6-10.9-3.3c-12.6-1.8-18.8-7.7-18.8-17.5c0-3.6,0.9-6.7,2.8-9.4c1.9-2.7,4.5-4.7,7.7-6.1
			c3.3-1.4,6.9-2.1,10.9-2.1c3.6,0,7,0.5,10.2,1.6c3.2,1.1,5.8,2.5,8,4.3c1.7,1.3,2.5,2.8,2.5,4.6c0,1.3-0.5,2.5-1.5,3.5
			c-1,1-2.1,1.5-3.4,1.5c-0.9,0-1.6-0.3-2.3-0.8c-1.5-1.2-3.6-2.3-6.2-3.3c-2.7-1-5.1-1.5-7.2-1.5c-3.6,0-6.4,0.7-8.4,2
			c-2,1.3-3,3.1-3,5.3c0,2.5,1,4.3,3.1,5.6c2,1.3,5.2,2.3,9.6,3.1c4.9,0.9,8.9,2,11.8,3.3c3,1.3,5.2,3.2,6.7,5.5
			c1.5,2.3,2.2,5.4,2.2,9.2c0,3.6-1,6.8-3.1,9.5c-2,2.7-4.7,4.8-8.1,6.3c-3.4,1.5-7,2.2-10.9,2.2
			C680.2,170.1,676.5,169.6,673.3,168.6z"/>
		<path class="st1" d="M780.4,162c0.2,0.7,0.3,1.3,0.3,1.8c0,1.5-0.6,2.8-1.8,3.9c-1.2,1-2.5,1.5-4.1,1.5c-0.7,0-1.5-0.2-2.1-0.5
			c-0.7-0.3-1.3-0.8-1.7-1.5l-18.7-24.6l-8.2,7.8V164c0,1.5-0.5,2.8-1.5,3.8c-1,1-2.3,1.5-3.9,1.5c-1.5,0-2.8-0.5-3.8-1.5
			c-1-1-1.5-2.2-1.5-3.7v-49.7c0-1.5,0.5-2.7,1.5-3.7c1-1,2.3-1.5,4-1.5c1.5,0,2.8,0.5,3.8,1.5c1,1,1.5,2.2,1.5,3.8v23.4l27.5-27.1
			c1.3-1.3,2.7-2,4.2-2c1.3,0,2.4,0.5,3.4,1.6c0.9,1.1,1.4,2.2,1.4,3.4c0,1.2-0.5,2.3-1.5,3.4L760.4,135l19.2,25.4
			C779.9,160.8,780.2,161.3,780.4,162z"/>
	</g>
</g>
</svg>
